<svg height="2030" width="720" xmlns="http://www.w3.org/2000/svg">
<rect height="2030" fill="#555" width="720"></rect>
<text fill="#7f7" font-family="Courier New" font-size="12" xml:space="preserve">
<tspan x="10" y="26"></tspan>
<tspan x="10" y="42">&gt; npmdoc-playmusic@0.0.1 test /home/travis/build/npmdoc/node-npmdoc-playmusic</tspan>
<tspan x="10" y="58">&gt; (set -e; export PORT=$(utility2 shServerPortRandom); utility2 test test.js)</tspan>
<tspan x="10" y="74"></tspan>
<tspan x="10" y="90"></tspan>
<tspan x="10" y="106">[MODE_BUILD=npmTest] - 2017-04-07T09:30:57Z - npm-testing /home/travis/build/npmdoc/node-npmdoc-\</tspan>
<tspan x="10" y="122">playmusic</tspan>
<tspan x="10" y="138"></tspan>
<tspan x="10" y="154"></tspan>
<tspan x="10" y="170">covering $ /home/travis/.nvm/versions/node/v6.10.2/bin/node /home/travis/build/npmdoc/node-npmdo\</tspan>
<tspan x="10" y="186">c-playmusic/test.js</tspan>
<tspan x="10" y="202">merging file:///home/travis/build/npmdoc/node-npmdoc-playmusic/tmp/build/test-report.json to tes\</tspan>
<tspan x="10" y="218">t-report</tspan>
<tspan x="10" y="234">&gt; server listening on http-port 55816</tspan>
<tspan x="10" y="250">created apidoc file:///home/travis/build/npmdoc/node-npmdoc-playmusic/tmp/build/apidoc.html</tspan>
<tspan x="10" y="266"></tspan>
<tspan x="10" y="282"></tspan>
<tspan x="10" y="298">browserTest - created electron entry-page /home/travis/build/npmdoc/node-npmdoc-playmusic/tmp/el\</tspan>
<tspan x="10" y="314">ectron.15b47c09eda0.4f3c45c4bd884.html</tspan>
<tspan x="10" y="330"></tspan>
<tspan x="10" y="346">[node test-case 1 of 6 passed] - testCase_buildLib_default</tspan>
<tspan x="10" y="362">[node test-case 2 of 6 passed] - testCase_buildReadme_default</tspan>
<tspan x="10" y="378">[node test-case 3 of 6 passed] - testCase_buildTest_default</tspan>
<tspan x="10" y="394"></tspan>
<tspan x="10" y="410">browserTest - created electron entry-page /home/travis/build/npmdoc/node-npmdoc-playmusic/tmp/el\</tspan>
<tspan x="10" y="426">ectron.15b47c09f080.0764ecbecf6f7.html</tspan>
<tspan x="10" y="442"></tspan>
<tspan x="10" y="458">Xlib:  extension "RANDR" missing on display ":99.0".</tspan>
<tspan x="10" y="474">Xlib:  extension "RANDR" missing on display ":99.0".</tspan>
<tspan x="10" y="490">merging file:///home/travis/build/npmdoc/node-npmdoc-playmusic/tmp/build/test-report.json to tes\</tspan>
<tspan x="10" y="506">t-report</tspan>
<tspan x="10" y="522">&gt; server listening on http-port 63080</tspan>
<tspan x="10" y="538">Xlib:  extension "RANDR" missing on display ":99.0".</tspan>
<tspan x="10" y="554">[5804:0407/093058:WARNING:audio_manager.cc(314)] Multiple instances of AudioManager detected</tspan>
<tspan x="10" y="570">[5804:0407/093058:WARNING:audio_manager.cc(275)] Multiple instances of AudioManager detected</tspan>
<tspan x="10" y="586">merging file:///home/travis/build/npmdoc/node-npmdoc-playmusic/tmp/build/test-report.json to tes\</tspan>
<tspan x="10" y="602">t-report</tspan>
<tspan x="10" y="618">Xlib:  extension "RANDR" missing on display ":99.0".</tspan>
<tspan x="10" y="634">[5801:0407/093058:WARNING:audio_manager.cc(314)] Multiple instances of AudioManager detected</tspan>
<tspan x="10" y="650">[5801:0407/093058:WARNING:audio_manager.cc(275)] Multiple instances of AudioManager detected</tspan>
<tspan x="10" y="666">[5837:0407/093058:ERROR:sandbox_linux.cc(343)] InitializeSandbox() called with multiple threads \</tspan>
<tspan x="10" y="682">in process gpu-process. </tspan>
<tspan x="10" y="698">[5804:0407/093058:ERROR:browser_gpu_channel_host_factory.cc(131)] Failed to create channel.</tspan>
<tspan x="10" y="714">[5857:0407/093058:ERROR:sandbox_linux.cc(343)] InitializeSandbox() called with multiple threads \</tspan>
<tspan x="10" y="730">in process gpu-process. </tspan>
<tspan x="10" y="746">[5801:0407/093058:ERROR:browser_gpu_channel_host_factory.cc(131)] Failed to create channel.</tspan>
<tspan x="10" y="762"></tspan>
<tspan x="10" y="778">browserTest - opened url http://127.0.0.1:55816?modeTest=1</tspan>
<tspan x="10" y="794"></tspan>
<tspan x="10" y="810"></tspan>
<tspan x="10" y="826">browserTest - opened url /home/travis/build/npmdoc/node-npmdoc-playmusic/tmp/build/apidoc.html</tspan>
<tspan x="10" y="842"></tspan>
<tspan x="10" y="858">[5804:0407/093100:INFO:CONSOLE(250)] "----------|-----------|-----------|-----------|-----------\</tspan>
<tspan x="10" y="874">|</tspan>
<tspan x="10" y="890">File      |   % Stmts |% Branches |   % Funcs |   % Lines |</tspan>
<tspan x="10" y="906">----------|-----------|-----------|-----------|-----------|</tspan>
<tspan x="10" y="922">----------|-----------|-----------|-----------|-----------|</tspan>
<tspan x="10" y="938">All files |       100 |       100 |       100 |       100 |</tspan>
<tspan x="10" y="954">----------|-----------|-----------|-----------|-----------|</tspan>
<tspan x="10" y="970">", source: file:///home/travis/build/npmdoc/node-npmdoc-playmusic/tmp/electron.15b47c09f080.0764\</tspan>
<tspan x="10" y="986">ecbecf6f7.html (250)</tspan>
<tspan x="10" y="1002">[5804:0407/093100:INFO:CONSOLE(250)] "created coverage file:///tmp/build/coverage.html/index.htm\</tspan>
<tspan x="10" y="1018">l", source: file:///home/travis/build/npmdoc/node-npmdoc-playmusic/tmp/electron.15b47c09f080.076\</tspan>
<tspan x="10" y="1034">4ecbecf6f7.html (250)</tspan>
<tspan x="10" y="1050">[node test-case 4 of 6 passed] - testCase_buildApp_default</tspan>
<tspan x="10" y="1066"></tspan>
<tspan x="10" y="1082">browserTest - created screenCapture file:///home/travis/build/npmdoc/node-npmdoc-playmusic/tmp/b\</tspan>
<tspan x="10" y="1098">uild/screenCapture.npmTest.browser._2Fhome_2Ftravis_2Fbuild_2Fnpmdoc_2Fnode-npmdoc-playmusic_2Ft\</tspan>
<tspan x="10" y="1114">mp_2Fbuild_2Fapidoc.html.png</tspan>
<tspan x="10" y="1130"></tspan>
<tspan x="10" y="1146"></tspan>
<tspan x="10" y="1162">browserTest - created screenCapture file:///home/travis/build/npmdoc/node-npmdoc-playmusic/tmp/b\</tspan>
<tspan x="10" y="1178">uild/screenCapture.npmTest.browser..png</tspan>
<tspan x="10" y="1194"></tspan>
<tspan x="10" y="1210">browserTest - created screenCapture file:///home/travis/build/npmdoc/node-npmdoc-playmusic/tmp/b\</tspan>
<tspan x="10" y="1226">uild/screenCapture.npmTest.browser..html</tspan>
<tspan x="10" y="1242"></tspan>
<tspan x="10" y="1258">browserTest - exit-code 0 - http://127.0.0.1:55816?modeTest=1</tspan>
<tspan x="10" y="1274"></tspan>
<tspan x="10" y="1290"></tspan>
<tspan x="10" y="1306">browserTest - merged coverage from /home/travis/build/npmdoc/node-npmdoc-playmusic/tmp/coverage.\</tspan>
<tspan x="10" y="1322">npmTest.browser.%2F.json</tspan>
<tspan x="10" y="1338"></tspan>
<tspan x="10" y="1354"></tspan>
<tspan x="10" y="1370">browserTest - merging test-report from /home/travis/build/npmdoc/node-npmdoc-playmusic/tmp/test-\</tspan>
<tspan x="10" y="1386">report.npmTest.browser.%2F.json</tspan>
<tspan x="10" y="1402"></tspan>
<tspan x="10" y="1418">[node test-case 5 of 6 passed] - testCase_webpage_default</tspan>
<tspan x="10" y="1434">browserTest - created screenCapture file:///home/travis/build/npmdoc/node-npmdoc-playmusic/tmp/b\</tspan>
<tspan x="10" y="1450">uild/screenCapture.npmTest.browser._2Fhome_2Ftravis_2Fbuild_2Fnpmdoc_2Fnode-npmdoc-playmusic_2Ft\</tspan>
<tspan x="10" y="1466">mp_2Fbuild_2Fapidoc.html.html</tspan>
<tspan x="10" y="1482"></tspan>
<tspan x="10" y="1498">browserTest - exit-code 0 - /home/travis/build/npmdoc/node-npmdoc-playmusic/tmp/build/apidoc.htm\</tspan>
<tspan x="10" y="1514">l</tspan>
<tspan x="10" y="1530"></tspan>
<tspan x="10" y="1546">[node test-case 6 of 6 passed] - testCase_buildApidoc_default</tspan>
<tspan x="10" y="1562">------------------------------|-----------|-----------|-----------|-----------|</tspan>
<tspan x="10" y="1578">File                          |   % Stmts |% Branches |   % Funcs |   % Lines |</tspan>
<tspan x="10" y="1594">------------------------------|-----------|-----------|-----------|-----------|</tspan>
<tspan x="10" y="1610">   node-npmdoc-playmusic/     |       100 |       100 |       100 |       100 |</tspan>
<tspan x="10" y="1626">      example.js              |       100 |       100 |       100 |       100 |</tspan>
<tspan x="10" y="1642">      lib.npmdoc_playmusic.js |       100 |       100 |       100 |       100 |</tspan>
<tspan x="10" y="1658">      test.js                 |       100 |       100 |       100 |       100 |</tspan>
<tspan x="10" y="1674">------------------------------|-----------|-----------|-----------|-----------|</tspan>
<tspan x="10" y="1690">All files                     |       100 |       100 |       100 |       100 |</tspan>
<tspan x="10" y="1706">------------------------------|-----------|-----------|-----------|-----------|</tspan>
<tspan x="10" y="1722"></tspan>
<tspan x="10" y="1738">created coverage file:///home/travis/build/npmdoc/node-npmdoc-playmusic/tmp/build/coverage.html/\</tspan>
<tspan x="10" y="1754">index.html</tspan>
<tspan x="10" y="1770">merging file:///home/travis/build/npmdoc/node-npmdoc-playmusic/tmp/build/test-report.json to tes\</tspan>
<tspan x="10" y="1786">t-report</tspan>
<tspan x="10" y="1802"></tspan>
<tspan x="10" y="1818">-------------------------------------------------------</tspan>
<tspan x="10" y="1834">| test-report - buildNpmdoc - node - linux v6.10.2 - 2017-04-07T09:30:18.084Z</tspan>
<tspan x="10" y="1850">|   54474 ms            0 failed        6 passed      |</tspan>
<tspan x="10" y="1866">-------------------------------------------------------</tspan>
<tspan x="10" y="1882"></tspan>
<tspan x="10" y="1898">created test-report file:///home/travis/build/npmdoc/node-npmdoc-playmusic/tmp/build/test-report\</tspan>
<tspan x="10" y="1914">.html</tspan>
<tspan x="10" y="1930"></tspan>
<tspan x="10" y="1946"></tspan>
<tspan x="10" y="1962">npmTest - 0 failed tests</tspan>
<tspan x="10" y="1978"></tspan>
<tspan x="10" y="1994"></tspan>
<tspan x="10" y="2010">[MODE_BUILD=npmTest] - 2017-04-07T09:31:15Z - EXIT_CODE - 0</tspan>
</text>
</svg>
